<svg width="101" height="101" viewBox="0 0 101 101" fill="none" xmlns="http://www.w3.org/2000/svg">
<path fill-rule="evenodd" clip-rule="evenodd" d="M10 5H90C92.7614 5 95 7.23858 95 10V56.2234L67.0601 15.5837L65.0472 12.6559L62.9712 15.5393L37.6893 50.653L30.0585 39.5813L28.1417 36.8001L26.0419 39.4459L5 65.9585V10C5 7.23858 7.23858 5 10 5ZM100 10V63.4961L100.06 63.5836L100 63.625V90C100 95.5228 95.5229 100 90 100H66.1844L65.8067 100.26L65.6273 100H10C4.47716 100 0 95.5229 0 90V10C0 4.47716 4.47715 0 10 0H90C95.5228 0 100 4.47715 100 10ZM64.9528 21.3442L95 65.0491V90C95 92.7614 92.7614 95 90 95H68.2538L40.7026 55.025L64.9528 21.3442ZM5 74.0015V90C5 92.7614 7.23858 95 10 95H62.1813L27.8585 45.1999L5 74.0015ZM31 20.5C31 24.6421 27.6421 28 23.5 28C19.3579 28 16 24.6421 16 20.5C16 16.3579 19.3579 13 23.5 13C27.6421 13 31 16.3579 31 20.5ZM36 20.5C36 27.4036 30.4036 33 23.5 33C16.5964 33 11 27.4036 11 20.5C11 13.5964 16.5964 8 23.5 8C30.4036 8 36 13.5964 36 20.5Z" fill="#161823"/>
</svg>
